<?xml version="1.0" encoding="UTF-8" standalone="no"?>
<svg
   viewBox="0 0 500 32"
   aria-hidden="true"
   version="1.1"
   id="svg1"
   width="500"
   height="32"
   xml:space="preserve"
   xmlns="http://www.w3.org/2000/svg"
   xmlns:svg="http://www.w3.org/2000/svg"><defs
     id="defs1" /><text
     xml:space="preserve"
     style="font-style:normal;font-variant:normal;font-weight:bold;font-stretch:normal;font-size:28px;line-height:0;font-family:syne;-inkscape-font-specification:'syne Bold';letter-spacing:-1.51px;fill:#000000"
     x="73.23909"
     y="24.271078"
     id="text1"><tspan
       id="tspan1"
       x="73.23909"
       y="24.271078"
       style="line-height:0;letter-spacing:-1.51px">Bridgewater Marketing Group</tspan></text><g
     id="layer1"
     transform="translate(0.32178321,-0.27871744)"><path
       style="fill:#000000;stroke-width:0.115972"
       d="m 0.25365325,20.51355 v 0.714133 L 60.178417,3.6341465 60.210475,0.61533115 Z"
       id="path1" /><path
       style="fill:#000000;stroke-width:0.115667"
       d="m 2.1898661,29.977198 c 0,0 0.9067965,-8.404531 2.9133432,-8.346292 2.006535,0.05824 2.1994771,5.745353 2.1223049,5.822991 -0.077149,0.07761 -0.3887326,-3.403929 -0.6588468,-3.229244 -0.2701142,0.174696 -0.6145408,5.791364 -0.6145408,5.791364 z"
       id="path2" /><path
       style="fill:#000000;stroke-width:0.115667"
       d="m 13.926443,29.898076 -5.01647,-0.03736 c 0,0 5.202262,-12.89715 14.93792,-12.747617 9.735657,0.149532 14.492,10.242959 14.492,10.242959 0,0 -5.313732,-8.934549 -11.965199,-9.084081 -6.651455,-0.149532 -11.928031,8.074735 -12.448251,11.626131 z"
       id="path3" /><path
       style="fill:#000000;stroke-width:0.115667"
       d="m 45.504614,32.009778 c 0,0 1.569865,-20.276662 15.29359,-22.620197"
       id="path4" /><path
       style="fill:#000000;stroke-width:0.115667"
       d="m 53.455255,32.009778 h -8.001289 l 15.040393,-22.2635655 -1.1e-5,7.9985815 c 0,0 -5.823711,0.71324 -7.039093,14.264984 z"
       id="path5" /></g></svg>
